# xmcd CD database file
#
# Track frame offsets:
#	150
#	18225
#	36925
#	55450
#	82575
#	99000
#	113775
#	135900
#	170925
#	187200
#	205425
#
# Disc length: 2924 seconds
#
# Revision: 3
# Processed by: cddbd v1.5.2PL0 Copyright (c) Steve Scherf et al.
# Submitted via: CDex 1.50
#
DISCID=8e0b6a0b
DTITLE=Verschiedene - The Ultimate Blues Collection Vol. 3 - CD02
DYEAR=1900
DGENRE=Blues
TTITLE0=Thomas Shaw - I'm Broke And I Haven't Got A Dime (1972)
TTITLE1=Thomas Shaw - Sail Along Little Girl (1972)
TTITLE2=Joanna Connor - Guitar Woman (1992)
TTITLE3=Joanna Connor - The Sky Is Crying (1992)
TTITLE4=VGO - Ed Morris - Talking Hard Luck Blues (1980)
TTITLE5=James Son Thomas - Bull Cow Blues (1980)
TTITLE6=Luther Allison - Fight (1989)
TTITLE7=Luther Allison - Freedom (1989)
TTITLE8=Thomas Shaw - Smokey Mountain (1972)
TTITLE9=Thomas Shaw - Mini Blues (1972)
TTITLE10=Sam Chatmon - Sittin' On The Top Of The World (1980)
EXTD=
EXTT0=
EXTT1=
EXTT2=
EXTT3=
EXTT4=
EXTT5=
EXTT6=
EXTT7=
EXTT8=
EXTT9=
EXTT10=
PLAYORDER=
